<svg width="604.1mm" height="575.7mm" viewBox="0 0 604.1 575.7" xmlns="http://www.w3.org/2000/svg" version="1.1" preserveAspectRatio="xMidYMid meet"><g id="svgGroup" stroke-linecap="round" fill-rule="evenodd" font-size="9pt" stroke="#000" stroke-width="0.25mm" fill="none" style="stroke:#000;stroke-width:0.25mm;fill:none"><path d="M 0 289.35 L 0 311.081 L 6.35 311.081 L 6.35 338.069 L 0 338.069 L 0 365.056 L 6.35 365.056 L 6.35 392.044 L 0 392.044 L 0 419.031 L 6.35 419.031 L 6.35 446.019 L 0 446.019 L 0 473.006 L 6.35 473.006 L 6.35 499.994 L 0 499.994 L 0 526.981 L 6.35 526.981 L 6.35 553.969 L 0 553.969 L 0 575.7 L 28.881 575.7 L 28.881 569.35 L 55.869 569.35 L 55.869 575.7 L 82.856 575.7 L 82.856 569.35 L 109.844 569.35 L 109.844 575.7 L 136.831 575.7 L 136.831 569.35 L 163.819 569.35 L 163.819 575.7 L 192.7 575.7 L 192.7 553.969 L 186.35 553.969 L 186.35 526.981 L 192.7 526.981 L 192.7 499.994 L 186.35 499.994 L 186.35 473.006 L 192.7 473.006 L 192.7 446.019 L 186.35 446.019 L 186.35 419.031 L 192.7 419.031 L 192.7 392.044 L 186.35 392.044 L 186.35 365.056 L 192.7 365.056 L 192.7 338.069 L 186.35 338.069 L 186.35 311.081 L 192.7 311.081 L 192.7 289.35 L 0 289.35 Z" id="front_outsideCutPath" stroke="#FF0000" stroke-width="0.1" style="stroke:#FF0000;stroke-width:0.1" vector-effect="non-scaling-stroke"/><path d="M 202.05 289.35 L 202.05 311.081 L 195.7 311.081 L 195.7 338.069 L 202.05 338.069 L 202.05 365.056 L 195.7 365.056 L 195.7 392.044 L 202.05 392.044 L 202.05 419.031 L 195.7 419.031 L 195.7 446.019 L 202.05 446.019 L 202.05 473.006 L 195.7 473.006 L 195.7 499.994 L 202.05 499.994 L 202.05 526.981 L 195.7 526.981 L 195.7 553.969 L 202.05 553.969 L 202.05 575.7 L 234.581 575.7 L 234.581 569.35 L 261.569 569.35 L 261.569 575.7 L 288.556 575.7 L 288.556 569.35 L 315.544 569.35 L 315.544 575.7 L 342.531 575.7 L 342.531 569.35 L 369.519 569.35 L 369.519 575.7 L 396.506 575.7 L 402.05 575.7 L 402.05 553.969 L 408.4 553.969 L 408.4 526.981 L 402.05 526.981 L 402.05 499.994 L 408.4 499.994 L 408.4 473.006 L 402.05 473.006 L 402.05 446.019 L 408.4 446.019 L 408.4 419.031 L 402.05 419.031 L 402.05 392.044 L 408.4 392.044 L 408.4 365.056 L 402.05 365.056 L 402.05 338.069 L 408.4 338.069 L 408.4 311.081 L 402.05 311.081 L 402.05 289.35 L 202.05 289.35 Z" id="left_outsideCutPath" stroke="#FF0000" stroke-width="0.1" style="stroke:#FF0000;stroke-width:0.1" vector-effect="non-scaling-stroke"/><path d="M 0 0 L 0 21.731 L 6.35 21.731 L 6.35 48.719 L 0 48.719 L 0 75.706 L 6.35 75.706 L 6.35 102.694 L 0 102.694 L 0 129.681 L 6.35 129.681 L 6.35 156.669 L 0 156.669 L 0 183.656 L 6.35 183.656 L 6.35 210.644 L 0 210.644 L 0 237.631 L 6.35 237.631 L 6.35 264.619 L 0 264.619 L 0 286.35 L 28.881 286.35 L 28.881 280 L 55.869 280 L 55.869 286.35 L 82.856 286.35 L 82.856 280 L 109.844 280 L 109.844 286.35 L 136.831 286.35 L 136.831 280 L 163.819 280 L 163.819 286.35 L 192.7 286.35 L 192.7 264.619 L 186.35 264.619 L 186.35 237.631 L 192.7 237.631 L 192.7 210.644 L 186.35 210.644 L 186.35 183.656 L 192.7 183.656 L 192.7 156.669 L 186.35 156.669 L 186.35 129.681 L 192.7 129.681 L 192.7 102.694 L 186.35 102.694 L 186.35 75.706 L 192.7 75.706 L 192.7 48.719 L 186.35 48.719 L 186.35 21.731 L 192.7 21.731 L 192.7 0 L 0 0 Z" id="back_outsideCutPath" stroke="#FF0000" stroke-width="0.1" style="stroke:#FF0000;stroke-width:0.1" vector-effect="non-scaling-stroke"/><path d="M 202.05 0 L 202.05 21.731 L 195.7 21.731 L 195.7 48.719 L 202.05 48.719 L 202.05 75.706 L 195.7 75.706 L 195.7 102.694 L 202.05 102.694 L 202.05 129.681 L 195.7 129.681 L 195.7 156.669 L 202.05 156.669 L 202.05 183.656 L 195.7 183.656 L 195.7 210.644 L 202.05 210.644 L 202.05 237.631 L 195.7 237.631 L 195.7 264.619 L 202.05 264.619 L 202.05 286.35 L 234.581 286.35 L 234.581 280 L 261.569 280 L 261.569 286.35 L 288.556 286.35 L 288.556 280 L 315.544 280 L 315.544 286.35 L 342.531 286.35 L 342.531 280 L 369.519 280 L 369.519 286.35 L 396.506 286.35 L 402.05 286.35 L 402.05 264.619 L 408.4 264.619 L 408.4 237.631 L 402.05 237.631 L 402.05 210.644 L 408.4 210.644 L 408.4 183.656 L 402.05 183.656 L 402.05 156.669 L 408.4 156.669 L 408.4 129.681 L 402.05 129.681 L 402.05 102.694 L 408.4 102.694 L 408.4 75.706 L 402.05 75.706 L 402.05 48.719 L 408.4 48.719 L 408.4 21.731 L 402.05 21.731 L 402.05 0 L 202.05 0 Z" id="right_outsideCutPath" stroke="#FF0000" stroke-width="0.1" style="stroke:#FF0000;stroke-width:0.1" vector-effect="non-scaling-stroke"/><path d="M 417.75 369.35 L 417.75 401.881 L 411.4 401.881 L 411.4 428.869 L 417.75 428.869 L 417.75 455.856 L 411.4 455.856 L 411.4 482.844 L 417.75 482.844 L 417.75 509.831 L 411.4 509.831 L 411.4 536.819 L 417.75 536.819 L 417.75 563.806 L 417.75 569.35 L 440.281 569.35 L 440.281 575.7 L 467.269 575.7 L 467.269 569.35 L 494.256 569.35 L 494.256 575.7 L 521.244 575.7 L 521.244 569.35 L 548.231 569.35 L 548.231 575.7 L 575.219 575.7 L 575.219 569.35 L 597.75 569.35 L 597.75 536.819 L 604.1 536.819 L 604.1 509.831 L 597.75 509.831 L 597.75 482.844 L 604.1 482.844 L 604.1 455.856 L 597.75 455.856 L 597.75 428.869 L 604.1 428.869 L 604.1 401.881 L 597.75 401.881 L 597.75 374.894 L 597.75 369.35 L 575.219 369.35 L 575.219 363 L 548.231 363 L 548.231 369.35 L 521.244 369.35 L 521.244 363 L 494.256 363 L 494.256 369.35 L 467.269 369.35 L 467.269 363 L 440.281 363 L 440.281 369.35 L 417.75 369.35 Z" id="bottom_outsideCutPath" stroke="#FF0000" stroke-width="0.1" style="stroke:#FF0000;stroke-width:0.1" vector-effect="non-scaling-stroke"/></g></svg>