<svg width="325.05mm" height="209.35mm" viewBox="0 0 325.05 209.35" xmlns="http://www.w3.org/2000/svg" version="1.1" preserveAspectRatio="xMidYMid meet"><g id="svgGroup" stroke-linecap="round" fill-rule="evenodd" font-size="9pt" stroke="#000" stroke-width="0.25mm" fill="none" style="stroke:#000;stroke-width:0.25mm;fill:none"><path d="M 0 106.175 L 0 113.887 L 3.175 113.887 L 3.175 123.637 L 0 123.637 L 0 133.388 L 3.175 133.388 L 3.175 143.138 L 0 143.138 L 0 152.888 L 3.175 152.888 L 3.175 162.638 L 0 162.638 L 0 172.388 L 3.175 172.388 L 3.175 182.138 L 0 182.138 L 0 191.888 L 3.175 191.888 L 3.175 201.638 L 0 201.638 L 0 209.35 L 9.8 209.35 L 9.8 206.175 L 19.55 206.175 L 19.55 209.35 L 29.3 209.35 L 29.3 206.175 L 39.05 206.175 L 39.05 209.35 L 48.8 209.35 L 48.8 206.175 L 58.55 206.175 L 58.55 209.35 L 68.3 209.35 L 68.3 206.175 L 78.05 206.175 L 78.05 209.35 L 87.8 209.35 L 87.8 206.175 L 97.55 206.175 L 97.55 209.35 L 107.3 209.35 L 107.3 206.175 L 117.05 206.175 L 117.05 209.35 L 126.8 209.35 L 126.8 206.175 L 136.55 206.175 L 136.55 209.35 L 146.35 209.35 L 146.35 201.638 L 143.175 201.638 L 143.175 191.888 L 146.35 191.888 L 146.35 182.138 L 143.175 182.138 L 143.175 172.388 L 146.35 172.388 L 146.35 162.638 L 143.175 162.638 L 143.175 152.888 L 146.35 152.888 L 146.35 143.138 L 143.175 143.138 L 143.175 133.388 L 146.35 133.388 L 146.35 123.637 L 143.175 123.637 L 143.175 113.887 L 146.35 113.887 L 146.35 106.175 L 0 106.175 Z" id="front_outsideCutPath" stroke="#FF0000" stroke-width="0.1" style="stroke:#FF0000;stroke-width:0.1" vector-effect="non-scaling-stroke"/><path d="M 152.525 106.175 L 152.525 113.887 L 149.35 113.887 L 149.35 123.637 L 152.525 123.637 L 152.525 133.388 L 149.35 133.388 L 149.35 143.138 L 152.525 143.138 L 152.525 152.888 L 149.35 152.888 L 149.35 162.638 L 152.525 162.638 L 152.525 172.388 L 149.35 172.388 L 149.35 182.138 L 152.525 182.138 L 152.525 191.888 L 149.35 191.888 L 149.35 201.638 L 152.525 201.638 L 152.525 209.35 L 157.65 209.35 L 157.65 206.175 L 167.4 206.175 L 167.4 209.35 L 172.525 209.35 L 172.525 201.638 L 175.7 201.638 L 175.7 191.888 L 172.525 191.888 L 172.525 182.138 L 175.7 182.138 L 175.7 172.388 L 172.525 172.388 L 172.525 162.638 L 175.7 162.638 L 175.7 152.888 L 172.525 152.888 L 172.525 143.138 L 175.7 143.138 L 175.7 133.388 L 172.525 133.388 L 172.525 123.637 L 175.7 123.637 L 175.7 113.887 L 172.525 113.887 L 172.525 106.175 L 152.525 106.175 Z" id="left_outsideCutPath" stroke="#FF0000" stroke-width="0.1" style="stroke:#FF0000;stroke-width:0.1" vector-effect="non-scaling-stroke"/><path d="M 0 0 L 0 7.713 L 3.175 7.713 L 3.175 17.463 L 0 17.463 L 0 27.213 L 3.175 27.213 L 3.175 36.963 L 0 36.963 L 0 46.713 L 3.175 46.713 L 3.175 56.463 L 0 56.463 L 0 66.213 L 3.175 66.213 L 3.175 75.963 L 0 75.963 L 0 85.713 L 3.175 85.713 L 3.175 95.463 L 0 95.463 L 0 103.175 L 9.8 103.175 L 9.8 100 L 19.55 100 L 19.55 103.175 L 29.3 103.175 L 29.3 100 L 39.05 100 L 39.05 103.175 L 48.8 103.175 L 48.8 100 L 58.55 100 L 58.55 103.175 L 68.3 103.175 L 68.3 100 L 78.05 100 L 78.05 103.175 L 87.8 103.175 L 87.8 100 L 97.55 100 L 97.55 103.175 L 107.3 103.175 L 107.3 100 L 117.05 100 L 117.05 103.175 L 126.8 103.175 L 126.8 100 L 136.55 100 L 136.55 103.175 L 146.35 103.175 L 146.35 95.463 L 143.175 95.463 L 143.175 85.713 L 146.35 85.713 L 146.35 75.963 L 143.175 75.963 L 143.175 66.213 L 146.35 66.213 L 146.35 56.463 L 143.175 56.463 L 143.175 46.713 L 146.35 46.713 L 146.35 36.963 L 143.175 36.963 L 143.175 27.213 L 146.35 27.213 L 146.35 17.463 L 143.175 17.463 L 143.175 7.713 L 146.35 7.713 L 146.35 0 L 0 0 Z" id="back_outsideCutPath" stroke="#FF0000" stroke-width="0.1" style="stroke:#FF0000;stroke-width:0.1" vector-effect="non-scaling-stroke"/><path d="M 152.525 0 L 152.525 7.713 L 149.35 7.713 L 149.35 17.463 L 152.525 17.463 L 152.525 27.213 L 149.35 27.213 L 149.35 36.963 L 152.525 36.963 L 152.525 46.713 L 149.35 46.713 L 149.35 56.463 L 152.525 56.463 L 152.525 66.213 L 149.35 66.213 L 149.35 75.963 L 152.525 75.963 L 152.525 85.713 L 149.35 85.713 L 149.35 95.463 L 152.525 95.463 L 152.525 103.175 L 157.65 103.175 L 157.65 100 L 167.4 100 L 167.4 103.175 L 172.525 103.175 L 172.525 95.463 L 175.7 95.463 L 175.7 85.713 L 172.525 85.713 L 172.525 75.963 L 175.7 75.963 L 175.7 66.213 L 172.525 66.213 L 172.525 56.463 L 175.7 56.463 L 175.7 46.713 L 172.525 46.713 L 172.525 36.963 L 175.7 36.963 L 175.7 27.213 L 172.525 27.213 L 172.525 17.463 L 175.7 17.463 L 175.7 7.713 L 172.525 7.713 L 172.525 0 L 152.525 0 Z" id="right_outsideCutPath" stroke="#FF0000" stroke-width="0.1" style="stroke:#FF0000;stroke-width:0.1" vector-effect="non-scaling-stroke"/><path d="M 181.875 186.175 L 181.875 191.3 L 178.7 191.3 L 178.7 201.05 L 181.875 201.05 L 181.875 206.175 L 188.5 206.175 L 188.5 209.35 L 198.25 209.35 L 198.25 206.175 L 208 206.175 L 208 209.35 L 217.75 209.35 L 217.75 206.175 L 227.5 206.175 L 227.5 209.35 L 237.25 209.35 L 237.25 206.175 L 247 206.175 L 247 209.35 L 256.75 209.35 L 256.75 206.175 L 266.5 206.175 L 266.5 209.35 L 276.25 209.35 L 276.25 206.175 L 286 206.175 L 286 209.35 L 295.75 209.35 L 295.75 206.175 L 305.5 206.175 L 305.5 209.35 L 315.25 209.35 L 315.25 206.175 L 321.875 206.175 L 321.875 201.05 L 325.05 201.05 L 325.05 191.3 L 321.875 191.3 L 321.875 186.175 L 315.25 186.175 L 315.25 183 L 305.5 183 L 305.5 186.175 L 295.75 186.175 L 295.75 183 L 286 183 L 286 186.175 L 276.25 186.175 L 276.25 183 L 266.5 183 L 266.5 186.175 L 256.75 186.175 L 256.75 183 L 247 183 L 247 186.175 L 237.25 186.175 L 237.25 183 L 227.5 183 L 227.5 186.175 L 217.75 186.175 L 217.75 183 L 208 183 L 208 186.175 L 198.25 186.175 L 198.25 183 L 188.5 183 L 188.5 186.175 L 181.875 186.175 Z" id="bottom_outsideCutPath" stroke="#FF0000" stroke-width="0.1" style="stroke:#FF0000;stroke-width:0.1" vector-effect="non-scaling-stroke"/></g></svg>